# xmcd
# Copyright (C) 1995-1998 Ti Kan
#
# Track frame offsets:
#       150
#       25177
#       44123
#       57481
#       75764
#       94806
#       119981
#       140018
#       165404
#       184735
#       202038
#
# Disc length: 3049 seconds
#
# Revision: 0
# Processed by: cddbd v1.5.2PL0 Copyright (c) Steve Scherf et al.
# Submitted via: CD-Import v1.0
#
DISCID=9d0be70b
DTITLE=Tv On The Radio - Dear Science
DYEAR=2008
DGENRE=
TTITLE0=Halfway Home
TTITLE1=Crying
TTITLE2=Dancing Choose
TTITLE3=Stork and Owl
TTITLE4=Golden Age
TTITLE5=Familiy Tree
TTITLE6=Red Dress
TTITLE7=Love Dog
TTITLE8=Shout Me Out
TTITLE9=Dlz
TTITLE10=Lover's Day
EXTD=
EXTT0=
EXTT1=
EXTT2=
EXTT3=
EXTT4=
EXTT5=
EXTT6=
EXTT7=
EXTT8=
EXTT9=
EXTT10=
PLAYORDER=
